<svg width="1528" height="1099" viewBox="0 0 1528 1099" fill="none" version="1.1" id="svg162" xmlns="http://www.w3.org/2000/svg">
  <mask id="path-1-inside-1_32_44" fill="#ffffff">
    <path fill-rule="evenodd" clip-rule="evenodd" d="m 1407,15 c 0,-8.28427 -6.72,-15 -15,-15 H 263 c -8.284,0 -15,6.71573 -15,15 v 30 c 0,8.2843 -6.716,15 -15,15 H 15 C 6.71573,60 0,66.7157 0,75 v 1009 c 0,8.28 6.71575,15 15,15 h 1498 c 8.28,0 15,-6.72 15,-15 V 75 c 0,-8.2843 -6.72,-15 -15,-15 h -91 c -8.28,0 -15,-6.7157 -15,-15 z" id="path132"/>
  </mask>
  <g id="g137">
    <path fill-rule="evenodd" clip-rule="evenodd" fill="#1e1e1e" id="path135" d="M 1002,0 H 263 c -8.284,0 -15,6.71573 -15,15 v 30 c 0,8.2843 -6.716,15 -15,15 H 15 C 6.71573,60 0,66.7157 0,75 v 1009 c 0,8.28 6.71575,15 15,15 h 1498 c 8.28,0 15,-6.72 15,-15 V 14.999999 C 1528,6.7156992 1521.2163,-1.024906 1513,-7.559055e-7 1458.5499,-0.25408479 1059.7396,-0.32498252 1002,0 Z"/>
  </g>
  <path d="M 263,2 H 1392 V -2 H 263 Z M 250,45 V 15 h -4 V 45 Z M 15,62 H 233 V 58 H 15 Z M 2,1084 V 75 h -4 v 1009 z m 1511,13 H 15 v 4 H 1513 Z M 1526,75 v 1009 h 4 V 75 Z M 1422,62 h 91 v -4 h -91 z m -17,-47 v 30 h 4 V 15 Z m 17,43 c -7.18,0 -13,-5.8203 -13,-13 h -4 c 0,9.3888 7.61,17 17,17 z m 108,17 c 0,-9.3888 -7.61,-17 -17,-17 v 4 c 7.18,0 13,5.8203 13,13 z m -17,1026 c 9.39,0 17,-7.61 17,-17 h -4 c 0,7.18 -5.82,13 -13,13 z M -2,1084 c 0,9.39 7.61118,17 17,17 v -4 c -7.17969,0 -13,-5.82 -13,-13 z M 15,58 C 5.61116,58 -2,65.6112 -2,75 H 2 C 2,67.8203 7.8203,62 15,62 Z M 246,45 c 0,7.1797 -5.82,13 -13,13 v 4 c 9.389,0 17,-7.6112 17,-17 z M 1392,2 c 7.18,0 13,5.8203 13,13 h 4 c 0,-9.38884 -7.61,-17 -17,-17 z M 263,-2 c -9.389,0 -17,7.61116 -17,17 h 4 c 0,-7.1797 5.82,-13 13,-13 z" fill="current" mask="url(#path-1-inside-1_32_44)" id="path139"/>
</svg>