<?xml version="1.0" encoding="UTF-8" standalone="no"?>
<svg
   width="1528"
   height="1099"
   viewBox="0 0 1528 1099"
   fill="none"
   version="1.1"
   id="svg162"
   xmlns="http://www.w3.org/2000/svg"
   >
  <mask
     id="path-1-inside-1_32_44"
     fill="#ffffff">
    <path
       fill-rule="evenodd"
       clip-rule="evenodd"
       d="m 1407,15 c 0,-8.28427 -6.72,-15 -15,-15 H 263 c -8.284,0 -15,6.71573 -15,15 v 30 c 0,8.2843 -6.716,15 -15,15 H 15 C 6.71573,60 0,66.7157 0,75 v 1009 c 0,8.28 6.71575,15 15,15 h 1498 c 8.28,0 15,-6.72 15,-15 V 75 c 0,-8.2843 -6.72,-15 -15,-15 h -91 c -8.28,0 -15,-6.7157 -15,-15 z"
       id="path132" />
  </mask>
  <g
     filter="url(#filter0_i_32_44)"
     id="g137">
    <path
       fill-rule="evenodd"
       clip-rule="evenodd"
       d="m 1017,15 c 0,-8.28427 -6.72,-15 -15,-15 H 263 c -8.284,0 -15,6.71573 -15,15 v 30 c 0,8.2843 -6.716,15 -15,15 H 15 C 6.71573,60 0,66.7157 0,75 v 1009 c 0,8.28 6.71575,15 15,15 h 1498 c 8.28,0 15,-6.72 15,-15 V 75 c 0,-8.2843 -6.72,-15 -15,-15 h -481 c -8.28,0 -15,-6.7157 -15,-15 z"
       fill="#1e1e1e"
       id="path135" />
  </g>
  <path
     d="M 263,2 H 1392 V -2 H 263 Z M 250,45 V 15 h -4 V 45 Z M 15,62 H 233 V 58 H 15 Z M 2,1084 V 75 h -4 v 1009 z m 1511,13 H 15 v 4 H 1513 Z M 1526,75 v 1009 h 4 V 75 Z M 1422,62 h 91 v -4 h -91 z m -17,-47 v 30 h 4 V 15 Z m 17,43 c -7.18,0 -13,-5.8203 -13,-13 h -4 c 0,9.3888 7.61,17 17,17 z m 108,17 c 0,-9.3888 -7.61,-17 -17,-17 v 4 c 7.18,0 13,5.8203 13,13 z m -17,1026 c 9.39,0 17,-7.61 17,-17 h -4 c 0,7.18 -5.82,13 -13,13 z M -2,1084 c 0,9.39 7.61118,17 17,17 v -4 c -7.17969,0 -13,-5.82 -13,-13 z M 15,58 C 5.61116,58 -2,65.6112 -2,75 H 2 C 2,67.8203 7.8203,62 15,62 Z M 246,45 c 0,7.1797 -5.82,13 -13,13 v 4 c 9.389,0 17,-7.6112 17,-17 z M 1392,2 c 7.18,0 13,5.8203 13,13 h 4 c 0,-9.38884 -7.61,-17 -17,-17 z M 263,-2 c -9.389,0 -17,7.61116 -17,17 h 4 c 0,-7.1797 5.82,-13 13,-13 z"
     fill="current"
     mask="url(#path-1-inside-1_32_44)"
     id="path139" />
  <defs
     id="defs160">
    <filter
       id="filter0_i_32_44"
       x="-3"
       y="0"
       width="1531"
       height="1103"
       filterUnits="userSpaceOnUse"
       color-interpolation-filters="sRGB">
      <feFlood
         flood-opacity="0"
         result="BackgroundImageFix"
         id="feFlood141" />
      <feBlend
         mode="normal"
         in="SourceGraphic"
         in2="BackgroundImageFix"
         result="shape"
         id="feBlend143" />
      <feColorMatrix
         in="SourceAlpha"
         type="matrix"
         values="0 0 0 0 0 0 0 0 0 0 0 0 0 0 0 0 0 0 127 0"
         result="hardAlpha"
         id="feColorMatrix145" />
      <feMorphology
         radius="26"
         operator="dilate"
         in="SourceAlpha"
         result="effect1_innerShadow_32_44"
         id="feMorphology147" />
      <feOffset
         dx="-3"
         dy="4"
         id="feOffset149" />
      <feGaussianBlur
         stdDeviation="112"
         id="feGaussianBlur151" />
      <feComposite
         in2="hardAlpha"
         operator="arithmetic"
         k2="-1"
         k3="1"
         id="feComposite153"
         k1="0"
         k4="0" />
      <feColorMatrix
         type="matrix"
         values="0 0 0 0 0 0 0 0 0 0 0 0 0 0 0 0 0 0 0.24 0"
         id="feColorMatrix155" />
      <feBlend
         mode="normal"
         in2="shape"
         result="effect1_innerShadow_32_44"
         id="feBlend157" />
    </filter>
  </defs>
</svg>
